SURVIVAL OF THE DEAD 2010 DVDRIP H264

Format                           : AVI
Format/Info                      : Audio Video Interleave
File size                        : 382 MiB
Duration                         : 2h 52mn
Overall bit rate                 : 310 Kbps
Writing application              : MEncoder SVN-r29352(20090610-gcc4.3.3)
Writing library                  : MPlayer

Video
ID                               : 0
Format                           : AVC
Format/Info                      : Advanced Video Codec
Format profile                   : Baseline@L1.3
Format settings, CABAC           : No
Format settings, ReFrames        : 1 frame
Codec ID                         : avc1
Duration                         : 1h 26mn
Bit rate                         : 512 Kbps
Width                            : 640 pixels
Height                           : 360 pixels
Display aspect ratio             : 16:9
Frame rate                       : 25.000 fps
Resolution                       : 24 bits
Colorimetry                      : 4:2:0
Scan type                        : Progressive
Bits/(Pixel*Frame)               : 0.089
Stream size                      : 315 MiB (83%)
Writing library                  : x264 core 67 r1163+17 7d945df
Encoding settings                : cabac=0 / ref=1 / deblock=1:0:0 / analyse=0x1:0x111 / 

Audio
ID                               : 1
Format                           : MPEG Audio
Format version                   : Version 2
Format profile                   : Layer 3
Codec ID                         : 55
Codec ID/Hint                    : MP3
Duration                         : 2h 52mn
Bit rate mode                    : Constant
Bit rate                         : 96.0 Kbps
Channel(s)                       : 2 channels
Sampling rate                    : 22.05 KHz
Resolution                       : 16 bits
Stream size                      : 59.1 MiB (15%)
Alignment                        : Aligned on interleaves
Interleave, duration             : 26 ms (0.65 video frame)
Interleave, preload duration     : 522 ms
Writing library                  : LAME3.98



Survival of the Dead takes place in a desperate, nightmarish world where the dead walk the earth, relentlessly attacking the living. It is the story of Plum Island - a beautiful refuge whose isolation allows two powerful families to maintain a semblance of order in the wake of the zombie holocaust. But as the inhabitants slowly die off, the two clans become sharply divided: The O'Flynns believe that the undead must be destroyed without exception, while the Muldoons insist that afflicted loved ones be kept "alive" until a cure is found. Into this situation wander a small group of National Guard troops who have decided to strike out on their own in a an effort to survive.
 
http://www.imdb.com/title/tt1134854/

PLEASE SEED AND ENJOY THANKS
 
http://img376.imageshack.us/img376/6296/sotdh264viceavithumbs20.jpg